<svg xmlns="http://www.w3.org/2000/svg" width="264.6611328125" height="255.90602111816406" viewBox="-32.833370208740234 -17.360885620117188 264.6611328125 255.90602111816406"><title>Neo4j Graph Visualization</title><desc>Created using Neo4j (http://www.neo4j.com/)</desc><g class="layer relationships"><g class="relationship" transform="translate(90.99766083036158 209.54511388222247) rotate(274.6979690746061)"><path class="outline" fill="#A5ABB6" stroke="none" d="M 25 0.5 L 28.0118882571154 0.5 L 28.0118882571154 -0.5 L 25 -0.5 Z M 74.9025132571154 0.5 L 77.9144015142308 0.5 L 77.9144015142308 3.5 L 84.9144015142308 0 L 77.9144015142308 -3.5 L 77.9144015142308 -0.5 L 74.9025132571154 -0.5 Z"/><text text-anchor="middle" pointer-events="none" font-size="8px" fill="#000000" x="51.4572007571154" y="3" font-family="sans-serif">DIRECTED</text></g><g class="relationship" transform="translate(202.8277732488644 145.06244132852132) rotate(203.66458378202339)"><path class="outline" fill="#A5ABB6" stroke="none" d="M 25 0.5 L 34.747440229591106 0.5 L 34.747440229591106 -0.5 L 25 -0.5 Z M 70.5208777295911 0.5 L 80.26831795918221 0.5 L 80.26831795918221 3.5 L 87.26831795918221 0 L 80.26831795918221 -3.5 L 80.26831795918221 -0.5 L 70.5208777295911 -0.5 Z"/><text text-anchor="middle" pointer-events="none" font-size="8px" fill="#000000" x="52.634158979591106" y="3" transform="rotate(180 52.634158979591106 0)" font-family="sans-serif">WROTE</text></g><g class="relationship" transform="translate(168.50782769163928 11.688833386270865) rotate(487.8027020218691)"><path class="outline" fill="#A5ABB6" stroke="none" d="M 25 0.5 L 34.497499358993366 0.5 L 34.497499358993366 -0.5 L 25 -0.5 Z M 70.27093685899337 0.5 L 79.76843621798673 0.5 L 79.76843621798673 3.5 L 86.76843621798673 0 L 79.76843621798673 -3.5 L 79.76843621798673 -0.5 L 70.27093685899337 -0.5 Z"/><text text-anchor="middle" pointer-events="none" font-size="8px" fill="#000000" x="52.384218108993366" y="3" transform="rotate(180 52.384218108993366 0)" font-family="sans-serif">WROTE</text></g><g class="relationship" transform="translate(30.778539979155614 11.639114043639738) rotate(411.9250328048861)"><path class="outline" fill="#A5ABB6" stroke="none" d="M 25 0.5 L 29.84195247590288 0.5 L 29.84195247590288 -0.5 L 25 -0.5 Z M 75.40445247590287 0.5 L 80.24640495180576 0.5 L 80.24640495180576 3.5 L 87.24640495180576 0 L 80.24640495180576 -3.5 L 80.24640495180576 -0.5 L 75.40445247590287 -0.5 Z"/><text text-anchor="middle" pointer-events="none" font-size="8px" fill="#000000" x="52.62320247590288" y="3" font-family="sans-serif">ACTED_IN</text></g><g class="relationship" transform="translate(-3.8333693270081617 136.0121080273932) rotate(340.87212285037594)"><path class="outline" fill="#A5ABB6" stroke="none" d="M 25 0.5 L 28.66927553864671 0.5 L 28.66927553864671 -0.5 L 25 -0.5 Z M 74.2317755386467 0.5 L 77.90105107729342 0.5 L 77.90105107729342 3.5 L 84.90105107729342 0 L 77.90105107729342 -3.5 L 77.90105107729342 -0.5 L 74.2317755386467 -0.5 Z"/><text text-anchor="middle" pointer-events="none" font-size="8px" fill="#000000" x="51.45052553864671" y="3" font-family="sans-serif">ACTED_IN</text></g></g><g class="layer nodes"><g class="node" transform="translate(100,99.99999281466265)"><circle class="outline" cx="0" cy="0" r="25" fill="#F79767" stroke="#f36924" stroke-width="2px"/><text text-anchor="middle" pointer-events="none" font-family="sans-serif" dy="1.5625" font-size="25" fill="#FFFFFF"/><text text-anchor="middle" pointer-events="none" font-family="sans-serif" dy="1.5625" font-size="25" fill="#FFFFFF"/><text text-anchor="middle" pointer-events="none" font-family="sans-serif" dy="1.5625" font-size="25" fill="#FFFFFF"/><text text-anchor="middle" pointer-events="none" x="0" y="-5" font-size="10px" fill="#FFFFFF" font-family="sans-serif"> Captain</text><text text-anchor="middle" pointer-events="none" x="0" y="5" font-size="10px" fill="#FFFFFF" font-family="sans-serif"> America:</text><text text-anchor="middle" pointer-events="none" x="0" y="15" font-size="10px" fill="#FFFFFF" font-family="sans-serif"> The Fi…</text></g><g class="node" transform="translate(90.99766083036158,209.54511388222247)"><circle class="outline" cx="0" cy="0" r="25" fill="#57C7E3" stroke="#23b3d7" stroke-width="2px"/><text text-anchor="middle" pointer-events="none" font-family="sans-serif" dy="1.5625" font-size="25" fill="#2A2C34"/><text text-anchor="middle" pointer-events="none" font-family="sans-serif" dy="1.5625" font-size="25" fill="#2A2C34"/><text text-anchor="middle" pointer-events="none" x="0" y="0" font-size="10px" fill="#2A2C34" font-family="sans-serif"> Joe</text><text text-anchor="middle" pointer-events="none" x="0" y="10" font-size="10px" fill="#2A2C34" font-family="sans-serif"> Johnston</text></g><g class="node" transform="translate(202.8277732488644,145.06244132852132)"><circle class="outline" cx="0" cy="0" r="25" fill="#57C7E3" stroke="#23b3d7" stroke-width="2px"/><text text-anchor="middle" pointer-events="none" font-family="sans-serif" dy="1.5625" font-size="25" fill="#2A2C34"/><text text-anchor="middle" pointer-events="none" x="0" y="5" font-size="10px" fill="#2A2C34" font-family="sans-serif"> Christop…</text></g><g class="node" transform="translate(168.50782769163928,11.688833386270865)"><circle class="outline" cx="0" cy="0" r="25" fill="#57C7E3" stroke="#23b3d7" stroke-width="2px"/><text text-anchor="middle" pointer-events="none" font-family="sans-serif" dy="1.5625" font-size="25" fill="#2A2C34"/><text text-anchor="middle" pointer-events="none" font-family="sans-serif" dy="1.5625" font-size="25" fill="#2A2C34"/><text text-anchor="middle" pointer-events="none" x="0" y="0" font-size="10px" fill="#2A2C34" font-family="sans-serif"> Stephen</text><text text-anchor="middle" pointer-events="none" x="0" y="10" font-size="10px" fill="#2A2C34" font-family="sans-serif"> McFeely</text></g><g class="node" transform="translate(30.778539979155614,11.639114043639738)"><circle class="outline" cx="0" cy="0" r="25" fill="#57C7E3" stroke="#23b3d7" stroke-width="2px"/><text text-anchor="middle" pointer-events="none" font-family="sans-serif" dy="1.5625" font-size="25" fill="#2A2C34"/><text text-anchor="middle" pointer-events="none" font-family="sans-serif" dy="1.5625" font-size="25" fill="#2A2C34"/><text text-anchor="middle" pointer-events="none" x="0" y="0" font-size="10px" fill="#2A2C34" font-family="sans-serif"> Chris</text><text text-anchor="middle" pointer-events="none" x="0" y="10" font-size="10px" fill="#2A2C34" font-family="sans-serif"> Evans</text></g><g class="node" transform="translate(-3.8333693270081617,136.0121080273932)"><circle class="outline" cx="0" cy="0" r="25" fill="#57C7E3" stroke="#23b3d7" stroke-width="2px"/><text text-anchor="middle" pointer-events="none" font-family="sans-serif" dy="1.5625" font-size="25" fill="#2A2C34"/><text text-anchor="middle" pointer-events="none" font-family="sans-serif" dy="1.5625" font-size="25" fill="#2A2C34"/><text text-anchor="middle" pointer-events="none" x="0" y="0" font-size="10px" fill="#2A2C34" font-family="sans-serif"> Hayley</text><text text-anchor="middle" pointer-events="none" x="0" y="10" font-size="10px" fill="#2A2C34" font-family="sans-serif"> Atwell</text></g></g></svg>