<svg xmlns="http://www.w3.org/2000/svg" width="362.9183349609375" height="364.6995849609375" viewBox="-89.77589416503906 -76.75320434570312 362.9183349609375 364.6995849609375"><title>Neo4j Graph Visualization</title><desc>Created using Neo4j (http://www.neo4j.com/)</desc><g class="layer relationships"><g class="relationship" transform="translate(136.10884793122523 258.9463740326129) rotate(330.0268081215621)"><path class="outline" fill="#A5ABB6" stroke="none" d="M 21.40063509461097,12.933012701892217 L 21.90063509461097,12.06698729810778 A 57.560657016777625 57.560657016777625 0 0 0 24.23435792949297,13.343393709950476 L 23.774901643825515,14.231594093625617 A 58.560657016777625 58.560657016777625 0 0 1 21.40063509461097,12.933012701892217 Z M 74.2633311773613,15.820444606236371 L 73.86063133115559,14.905112516847005 A 57.560657016777625 57.560657016777625 0 0 0 76.26999291096993,13.777969058383388 L 74.93632001871065,11.090718304089558 L 82.76252348636541,11.113940768827364 L 78.0482234339823,17.360970064108493 L 76.71455054172301,14.673719309814665 A 58.560657016777625 58.560657016777625 0 0 1 74.2633311773613,15.820444606236371"/><text text-anchor="middle" pointer-events="none" font-size="8px" fill="#000000" x="48.85472221786575" y="23.249924650886314" font-family="sans-serif">PRODUCED</text></g><g class="relationship" transform="translate(136.10884793122523 258.9463740326129) rotate(330.0268081215621)"><path class="outline" fill="#A5ABB6" stroke="none" d="M 25 0.5 L 25.632827386073657 0.5 L 25.632827386073657 -0.5 L 25 -0.5 Z M 72.52345238607366 0.5 L 73.15627977214731 0.5 L 73.15627977214731 3.5 L 80.15627977214731 0 L 73.15627977214731 -3.5 L 73.15627977214731 -0.5 L 72.52345238607366 -0.5 Z"/><text text-anchor="middle" pointer-events="none" font-size="8px" fill="#000000" x="49.07813988607366" y="3" font-family="sans-serif">DIRECTED</text></g><g class="relationship" transform="translate(136.10884793122523 258.9463740326129) rotate(330.0268081215621)"><path class="outline" fill="#A5ABB6" stroke="none" d="M 21.40063509461097,-12.933012701892217 L 21.90063509461097,-12.06698729810778 A 57.560657016777625 57.560657016777625 0 0 1 31.510803096401258,-16.492614277782224 L 31.177760328994854,-17.43552599956655 A 58.560657016777625 58.560657016777625 0 0 0 21.40063509461097,-12.933012701892217 Z M 66.67366723027342,-18.55256787226373 L 66.40057084710458,-17.590581195900647 A 57.560657016777625 57.560657016777625 0 0 1 76.26999291096993,-13.777969058383388 L 74.93632001871065,-11.090718304089558 L 82.76252348636541,-11.113940768827364 L 78.0482234339823,-17.360970064108493 L 76.71455054172301,-14.673719309814665 A 58.560657016777625 58.560657016777625 0 0 0 66.67366723027342,-18.55256787226373"/><text text-anchor="middle" pointer-events="none" font-size="8px" fill="#000000" x="48.85472221786574" y="-17.249924650886314" font-family="sans-serif">WROTE</text></g><g class="relationship" transform="translate(244.14243200167667 15.663459151367372) rotate(201.09726692666084)"><path class="outline" fill="#A5ABB6" stroke="none" d="M 24.018736134675446,6.953439040707552 L 24.277555179777966,5.987513214418485 A 99.52198709107886 99.52198709107886 0 0 0 30.732516710819723,7.488676230923048 L 30.5385573185408,8.469685789564949 A 100.52198709107886 100.52198709107886 0 0 1 24.018736134675446,6.953439040707552 Z M 66.29471613638128,9.055020562001957 L 66.13297067390596,8.068188050696904 A 99.52198709107886 99.52198709107886 0 0 0 72.63360894589178,6.7791105409472525 L 71.95241671608386,3.8574710789243762 L 79.56429972891314,5.676601915065938 L 73.54186525230233,10.674629823644421 L 72.86067302249441,7.752990361621546 A 100.52198709107886 100.52198709107886 0 0 1 66.29471613638128,9.055020562001957"/><text text-anchor="middle" pointer-events="none" font-size="8px" fill="#000000" x="48.39858221714547" y="12.865243297164838" transform="rotate(180 48.39858221714547 9.865243297164838)" font-family="sans-serif">WROTE</text></g><g class="relationship" transform="translate(244.14243200167667 15.663459151367372) rotate(201.09726692666084)"><path class="outline" fill="#A5ABB6" stroke="none" d="M 24.018736134675446,-6.953439040707552 L 24.277555179777966,-5.987513214418485 A 99.52198709107886 99.52198709107886 0 0 1 25.33933545044864,-6.265749958552149 L 25.091185206298608,-7.234471516239523 A 100.52198709107886 100.52198709107886 0 0 0 24.018736134675446,-6.953439040707552 Z M 71.77959995310272,-7.99876929107856 L 71.56329046960629,-7.022444443832768 A 99.52198709107886 99.52198709107886 0 0 1 72.63360894589178,-6.7791105409472525 L 71.95241671608386,-3.8574710789243762 L 79.56429972891314,-5.676601915065938 L 73.54186525230233,-10.674629823644421 L 72.86067302249441,-7.752990361621546 A 100.52198709107886 100.52198709107886 0 0 0 71.77959995310272,-7.99876929107856"/><text text-anchor="middle" pointer-events="none" font-size="8px" fill="#000000" x="48.39858221714544" y="-6.865243297164838" transform="rotate(180 48.39858221714544 -9.865243297164838)" font-family="sans-serif">DIRECTED</text></g><g class="relationship" transform="translate(46.67052259119941 -47.75320446412518) rotate(374.5084596654832)"><path class="outline" fill="#A5ABB6" stroke="none" d="M 24.018736134675446,6.953439040707552 L 24.277555179777966,5.987513214418485 A 99.37316906447192 99.37316906447192 0 0 0 30.695816826222863,7.481079909672047 L 30.501585251831685,8.462035614844055 A 100.37316906447192 100.37316906447192 0 0 1 24.018736134675446,6.953439040707552 Z M 66.25743306016906,9.047758450325134 L 66.0954354934302,8.060967292900898 A 99.37316906447192 99.37316906447192 0 0 0 72.55917310425664,6.7784228945336995 L 71.87804510730922,3.8567684571002823 L 79.48988812442586,5.676066641228597 L 73.46734376685322,10.673962144444923 L 72.7862157699058,7.752307707011505 A 100.37316906447192 100.37316906447192 0 0 1 66.25743306016906,9.047758450325134"/><text text-anchor="middle" pointer-events="none" font-size="8px" fill="#000000" x="48.36140341282719" y="12.860174406354403" font-family="sans-serif">WROTE</text></g><g class="relationship" transform="translate(46.67052259119941 -47.75320446412518) rotate(374.5084596654832)"><path class="outline" fill="#A5ABB6" stroke="none" d="M 24.018736134675446,-6.953439040707552 L 24.277555179777966,-5.987513214418485 A 99.37316906447192 99.37316906447192 0 0 1 25.303068226898993,-6.256443651360968 L 25.05456900008118,-7.225075745745087 A 100.37316906447192 100.37316906447192 0 0 0 24.018736134675446,-6.953439040707552 Z M 71.7420416023358,-7.989871450789508 L 71.52540185787866,-7.013619833058939 A 99.37316906447192 99.37316906447192 0 0 1 72.55917310425664,-6.7784228945336995 L 71.87804510730922,-3.8567684571002823 L 79.48988812442586,-5.676066641228597 L 73.46734376685322,-10.673962144444923 L 72.7862157699058,-7.752307707011505 A 100.37316906447192 100.37316906447192 0 0 0 71.7420416023358,-7.989871450789508"/><text text-anchor="middle" pointer-events="none" font-size="8px" fill="#000000" x="48.36140341282716" y="-6.860174406354403" font-family="sans-serif">DIRECTED</text></g><g class="relationship" transform="translate(-60.775895436140345 95.68374909007413) rotate(432.0152254411981)"><path class="outline" fill="#A5ABB6" stroke="none" d="M 21.40063509461097,12.933012701892217 L 21.90063509461097,12.06698729810778 A 57.15079644809576 57.15079644809576 0 0 0 24.051261284521587,13.247840474306827 L 23.588892014512616,14.134527937932745 A 58.15079644809576 58.15079644809576 0 0 1 21.40063509461097,12.933012701892217 Z M 74.05601095757487,15.728376137766638 L 73.65051388652506,14.814279794173672 A 57.15079644809576 57.15079644809576 0 0 0 75.87136709377641,13.771486303443066 L 74.53829728442486,11.083936325601648 L 82.36449534363165,11.108915077929664 L 77.64879350624517,17.354886273898288 L 76.31572369689361,14.66733629605687 A 58.15079644809576 58.15079644809576 0 0 1 74.05601095757487,15.728376137766638"/><text text-anchor="middle" pointer-events="none" font-size="8px" fill="#000000" x="48.65621816649317" y="23.195012715041493" font-family="sans-serif">PRODUCED</text></g><g class="relationship" transform="translate(-60.775895436140345 95.68374909007413) rotate(432.0152254411981)"><path class="outline" fill="#A5ABB6" stroke="none" d="M 25 0.5 L 30.9936538294884 0.5 L 30.9936538294884 -0.5 L 25 -0.5 Z M 66.76709132948841 0.5 L 72.7607451589768 0.5 L 72.7607451589768 3.5 L 79.7607451589768 0 L 72.7607451589768 -3.5 L 72.7607451589768 -0.5 L 66.76709132948841 -0.5 Z"/><text text-anchor="middle" pointer-events="none" font-size="8px" fill="#000000" x="48.8803725794884" y="3" font-family="sans-serif">WROTE</text></g><g class="relationship" transform="translate(-60.775895436140345 95.68374909007413) rotate(432.0152254411981)"><path class="outline" fill="#A5ABB6" stroke="none" d="M 21.40063509461097,-12.933012701892217 L 21.90063509461097,-12.06698729810778 A 57.15079644809576 57.15079644809576 0 0 1 26.223806926632694,-14.32275780142038 L 25.799451923740442,-15.228253705066727 A 58.15079644809576 58.15079644809576 0 0 0 21.40063509461097,-12.933012701892217 Z M 71.78084128675697,-16.68043398000553 L 71.41446955550967,-15.749965412807882 A 57.15079644809576 57.15079644809576 0 0 1 75.87136709377641,-13.771486303443066 L 74.53829728442486,-11.083936325601648 L 82.36449534363165,-11.108915077929664 L 77.64879350624517,-17.354886273898288 L 76.31572369689361,-14.66733629605687 A 58.15079644809576 58.15079644809576 0 0 0 71.78084128675697,-16.68043398000553"/><text text-anchor="middle" pointer-events="none" font-size="8px" fill="#000000" x="48.65621816649317" y="-17.195012715041493" font-family="sans-serif">DIRECTED</text></g></g><g class="layer nodes"><g class="node" transform="translate(136.10884793122523,258.9463740326129)"><circle class="outline" cx="0" cy="0" r="25" fill="#57C7E3" stroke="#23b3d7" stroke-width="2px"/><text text-anchor="middle" pointer-events="none" font-family="sans-serif" dy="1.5625" font-size="25" fill="#2A2C34"/><text text-anchor="middle" pointer-events="none" font-family="sans-serif" dy="1.5625" font-size="25" fill="#2A2C34"/><text text-anchor="middle" pointer-events="none" x="0" y="0" font-size="10px" fill="#2A2C34" font-family="sans-serif"> Cameron</text><text text-anchor="middle" pointer-events="none" x="0" y="10" font-size="10px" fill="#2A2C34" font-family="sans-serif"> Crowe</text></g><g class="node" transform="translate(227.20144839733518,206.41084971011486)"><circle class="outline" cx="0" cy="0" r="25" fill="#F79767" stroke="#f36924" stroke-width="2px"/><text text-anchor="middle" pointer-events="none" font-family="sans-serif" dy="1.5625" font-size="25" fill="#FFFFFF"/><text text-anchor="middle" pointer-events="none" font-family="sans-serif" dy="1.5625" font-size="25" fill="#FFFFFF"/><text text-anchor="middle" pointer-events="none" x="0" y="0" font-size="10px" fill="#FFFFFF" font-family="sans-serif"> Jerry</text><text text-anchor="middle" pointer-events="none" x="0" y="10" font-size="10px" fill="#FFFFFF" font-family="sans-serif"> Maguire</text></g><g class="node" transform="translate(244.14243200167667,15.663459151367372)"><circle class="outline" cx="0" cy="0" r="25" fill="#57C7E3" stroke="#23b3d7" stroke-width="2px"/><text text-anchor="middle" pointer-events="none" font-family="sans-serif" dy="1.5625" font-size="25" fill="#2A2C34"/><text text-anchor="middle" pointer-events="none" font-family="sans-serif" dy="1.5625" font-size="25" fill="#2A2C34"/><text text-anchor="middle" pointer-events="none" x="0" y="0" font-size="10px" fill="#2A2C34" font-family="sans-serif"> Lana</text><text text-anchor="middle" pointer-events="none" x="0" y="10" font-size="10px" fill="#2A2C34" font-family="sans-serif"> Wacho…</text></g><g class="node" transform="translate(147.1962375129797,-21.739651064407795)"><circle class="outline" cx="0" cy="0" r="25" fill="#F79767" stroke="#f36924" stroke-width="2px"/><text text-anchor="middle" pointer-events="none" font-family="sans-serif" dy="1.5625" font-size="25" fill="#FFFFFF"/><text text-anchor="middle" pointer-events="none" font-family="sans-serif" dy="1.5625" font-size="25" fill="#FFFFFF"/><text text-anchor="middle" pointer-events="none" x="0" y="0" font-size="10px" fill="#FFFFFF" font-family="sans-serif"> Speed</text><text text-anchor="middle" pointer-events="none" x="0" y="10" font-size="10px" fill="#FFFFFF" font-family="sans-serif"> Racer</text></g><g class="node" transform="translate(46.67052259119941,-47.75320446412518)"><circle class="outline" cx="0" cy="0" r="25" fill="#57C7E3" stroke="#23b3d7" stroke-width="2px"/><text text-anchor="middle" pointer-events="none" font-family="sans-serif" dy="1.5625" font-size="25" fill="#2A2C34"/><text text-anchor="middle" pointer-events="none" font-family="sans-serif" dy="1.5625" font-size="25" fill="#2A2C34"/><text text-anchor="middle" pointer-events="none" x="0" y="0" font-size="10px" fill="#2A2C34" font-family="sans-serif"> Andy</text><text text-anchor="middle" pointer-events="none" x="0" y="10" font-size="10px" fill="#2A2C34" font-family="sans-serif"> Wacho…</text></g><g class="node" transform="translate(-60.775895436140345,95.68374909007413)"><circle class="outline" cx="0" cy="0" r="25" fill="#57C7E3" stroke="#23b3d7" stroke-width="2px"/><text text-anchor="middle" pointer-events="none" font-family="sans-serif" dy="1.5625" font-size="25" fill="#2A2C34"/><text text-anchor="middle" pointer-events="none" font-family="sans-serif" dy="1.5625" font-size="25" fill="#2A2C34"/><text text-anchor="middle" pointer-events="none" x="0" y="0" font-size="10px" fill="#2A2C34" font-family="sans-serif"> Nancy</text><text text-anchor="middle" pointer-events="none" x="0" y="10" font-size="10px" fill="#2A2C34" font-family="sans-serif"> Meyers</text></g><g class="node" transform="translate(-28.429521968270077,195.32573747720508)"><circle class="outline" cx="0" cy="0" r="25" fill="#F79767" stroke="#f36924" stroke-width="2px"/><text text-anchor="middle" pointer-events="none" font-family="sans-serif" dy="1.5625" font-size="25" fill="#FFFFFF"/><text text-anchor="middle" pointer-events="none" x="0" y="5" font-size="10px" fill="#FFFFFF" font-family="sans-serif"> Somethi…</text></g></g></svg>