<svg xmlns="http://www.w3.org/2000/svg" width="161.36907958984375" height="245.409912109375" viewBox="-1.8863792419433594 -22.32166862487793 161.36907958984375 245.409912109375"><title>Neo4j Graph Visualization</title><desc>Created using Neo4j (http://www.neo4j.com/)</desc><g class="layer relationships"><g class="relationship" transform="translate(130.48269532153893 6.678331002915571) rotate(522.5756996461763)"><path class="outline" fill="#A5ABB6" stroke="none" d="M 21.40063509461097,12.933012701892217 L 21.90063509461097,12.06698729810778 A 59.76143404947906 59.76143404947906 0 0 0 40.41839278522733,18.983288084374408 L 40.22825411946648,19.96504532920771 A 60.76143404947906 60.76143404947906 0 0 1 21.40063509461097,12.933012701892217 Z M 59.63184795346093,20.564217271933558 L 59.50264600230689,19.57259897045966 A 59.76143404947906 59.76143404947906 0 0 0 78.41185847676944,13.812021738087692 L 77.07501774757758,11.126345498334699 L 84.90124315772506,11.140339409932183 L 80.19431278235858,17.39292339109168 L 78.85747205316672,14.70724715133869 A 60.76143404947906 60.76143404947906 0 0 1 59.63184795346093,20.564217271933558"/><text text-anchor="middle" pointer-events="none" font-size="8px" fill="#000000" x="49.921399864190136" y="23.544791002676384" transform="rotate(180 49.921399864190136 20.544791002676384)" font-family="sans-serif">trek</text></g><g class="relationship" transform="translate(28.123616066019157 38.80340448284376) rotate(450.5427799587064)"><path class="outline" fill="#A5ABB6" stroke="none" d="M 25 0.5 L 40.14028204635933 0.5 L 40.14028204635933 -0.5 L 25 -0.5 Z M 59.47621954635933 0.5 L 74.61650159271866 0.5 L 74.61650159271866 3.5 L 81.61650159271866 0 L 74.61650159271866 -3.5 L 74.61650159271866 -0.5 L 59.47621954635933 -0.5 Z"/><text text-anchor="middle" pointer-events="none" font-size="8px" fill="#000000" x="49.80825079635933" y="3" transform="rotate(180 49.80825079635933 0)" font-family="sans-serif">trek</text></g><g class="relationship" transform="translate(27.11362134628052 145.41512204961163) rotate(387.0182661232699)"><path class="outline" fill="#A5ABB6" stroke="none" d="M 25 0.5 L 40.40439765182192 0.5 L 40.40439765182192 -0.5 L 25 -0.5 Z M 59.74033515182192 0.5 L 75.14473280364383 0.5 L 75.14473280364383 3.5 L 82.14473280364383 0 L 75.14473280364383 -3.5 L 75.14473280364383 -0.5 L 59.74033515182192 -0.5 Z"/><text text-anchor="middle" pointer-events="none" font-size="8px" fill="#000000" x="50.07236640182192" y="3" font-family="sans-serif">trek</text></g><g class="relationship" transform="translate(130.48269532153893 6.678331002915571) rotate(522.5756996461763)"><path class="outline" fill="#A5ABB6" stroke="none" d="M 25 0.5 L 39.13507986950001 0.5 L 39.13507986950001 -0.5 L 25 -0.5 Z M 61.14679861950001 0.5 L 75.28187848900002 0.5 L 75.28187848900002 3.5 L 82.28187848900002 0 L 75.28187848900002 -3.5 L 75.28187848900002 -0.5 L 61.14679861950001 -0.5 Z"/><text text-anchor="middle" pointer-events="none" font-size="8px" fill="#000000" x="50.14093924450001" y="3" transform="rotate(180 50.14093924450001 0)" font-family="sans-serif">road</text></g><g class="relationship" transform="translate(130.48269532153893 6.678331002915571) rotate(522.5756996461763)"><path class="outline" fill="#A5ABB6" stroke="none" d="M 21.40063509461097,-12.933012701892217 L 21.90063509461097,-12.06698729810778 A 59.76143404947906 59.76143404947906 0 0 1 23.391434683861753,-12.899533314603701 L 22.916380530844215,-13.779489876998 A 60.76143404947906 60.76143404947906 0 0 0 21.40063509461097,-12.933012701892217 Z M 77.29238684241444,-15.458590028140954 L 76.87253113752293,-14.550999158271694 A 59.76143404947906 59.76143404947906 0 0 1 78.41185847676944,-13.812021738087692 L 77.07501774757758,-11.126345498334699 L 84.90124315772506,-11.140339409932183 L 80.19431278235858,-17.39292339109168 L 78.85747205316672,-14.70724715133869 A 60.76143404947906 60.76143404947906 0 0 0 77.29238684241444,-15.458590028140954"/><text text-anchor="middle" pointer-events="none" font-size="8px" fill="#000000" x="49.921399864190114" y="-17.544791002676384" transform="rotate(180 49.921399864190114 -20.544791002676384)" font-family="sans-serif">PublicTrans…</text></g></g><g class="layer nodes"><g class="node" transform="translate(130.48269532153893,6.678331002915571)"><circle class="outline" cx="0" cy="0" r="25" fill="#F16667" stroke="#eb2728" stroke-width="2px"/><text text-anchor="middle" pointer-events="none" font-family="sans-serif" dy="1.5625" font-size="25" fill="#FFFFFF"/><text text-anchor="middle" pointer-events="none" x="0" y="5" font-size="10px" fill="#FFFFFF" font-family="sans-serif"> Darjeeling</text></g><g class="node" transform="translate(122.56476497154917,194.08824551824233)"><circle class="outline" cx="0" cy="0" r="25" fill="#D9C8AE" stroke="#c0a378" stroke-width="2px"/><text text-anchor="middle" pointer-events="none" font-family="sans-serif" dy="1.5625" font-size="25" fill="#2A2C34"/><text text-anchor="middle" pointer-events="none" x="0" y="5" font-size="10px" fill="#2A2C34" font-family="sans-serif"> Sandak…</text></g><g class="node" transform="translate(28.123616066019157,38.80340448284376)"><circle class="outline" cx="0" cy="0" r="25" fill="#F16667" stroke="#eb2728" stroke-width="2px"/><text text-anchor="middle" pointer-events="none" font-family="sans-serif" dy="1.5625" font-size="25" fill="#FFFFFF"/><text text-anchor="middle" pointer-events="none" x="0" y="5" font-size="10px" fill="#FFFFFF" font-family="sans-serif"> Rimbik</text></g><g class="node" transform="translate(27.11362134628052,145.41512204961163)"><circle class="outline" cx="0" cy="0" r="25" fill="#8DCC93" stroke="#5db665" stroke-width="2px"/><text text-anchor="middle" pointer-events="none" font-family="sans-serif" dy="1.5625" font-size="25" fill="#2A2C34"/><text text-anchor="middle" pointer-events="none" x="0" y="5" font-size="10px" fill="#2A2C34" font-family="sans-serif"> BhikeBh…</text></g></g></svg>