<svg xmlns="http://www.w3.org/2000/svg" width="386.3955993652344" height="349.1454772949219" viewBox="-78.69363403320312 -81.68502044677734 386.3955993652344 349.1454772949219"><title>Neo4j Graph Visualization</title><desc>Created using Neo4j (http://www.neo4j.com/)</desc><g class="layer relationships"><g class="relationship" transform="translate(36.32151654538519 6.6431230603345535) rotate(374.70140960048525)"><path class="outline" fill="#A5ABB6" stroke="none" d="M 24.018736134675446,-6.953439040707552 L 24.277555179777966,-5.987513214418485 A 131.9814700292848 131.9814700292848 0 0 1 45.6094937880092,-9.85984232493189 L 45.51230302757041,-10.85510809651521 A 132.9814700292848 132.9814700292848 0 0 0 24.018736134675446,-6.953439040707552 Z M 67.57944415959928,-11.170021360699621 L 67.51069344618332,-10.172387490281835 A 131.9814700292848 131.9814700292848 0 0 1 88.9444443079462,-6.910354148736245 L 88.2509930739845,-3.991600067605564 L 95.8704457029114,-5.778760283014082 L 89.86904595322845,-10.802026256910487 L 89.17559471926675,-7.883272175779806 A 132.9814700292848 132.9814700292848 0 0 0 67.57944415959928,-11.170021360699621"/><text text-anchor="middle" pointer-events="none" font-size="8px" fill="#000000" x="56.546464114748076" y="-7.971184719148965" font-family="sans-serif">road</text></g><g class="relationship" transform="translate(152.57996255732547 37.14601249737429) rotate(373.3141413587706)"><path class="outline" fill="#A5ABB6" stroke="none" d="M 21.40063509461097,-12.933012701892217 L 21.90063509461097,-12.06698729810778 A 82.72569276544544 82.72569276544544 0 0 1 38.42607810487833,-19.33352044815041 L 38.12584002234118,-20.287384743422237 A 83.72569276544544 83.72569276544544 0 0 0 21.40063509461097,-12.933012701892217 Z M 84.24976406983929,-21.477304810595328 L 83.99910884204323,-20.5092283896561 A 82.72569276544544 82.72569276544544 0 0 1 100.87724876941559,-14.104451789469204 L 99.51320698138018,-11.432488092018735 L 107.33917102813925,-11.367014900295008 L 102.69597115346279,-17.667070052736495 L 101.33192936542738,-14.995106355286028 A 83.72569276544544 83.72569276544544 0 0 0 84.24976406983929,-21.477304810595328"/><text text-anchor="middle" pointer-events="none" font-size="8px" fill="#000000" x="61.11711199810694" y="-20.622446817510422" font-family="sans-serif">twowheeler</text></g><g class="relationship" transform="translate(278.7019684263618 66.9928612957919) rotate(219.06974535298139)"><path class="outline" fill="#A5ABB6" stroke="none" d="M 21.40063509461097,12.933012701892217 L 21.90063509461097,12.06698729810778 A 48.322645430303226 48.322645430303226 0 0 0 22.470132943162074,12.390660320001224 L 21.981918263346426,13.263383888155829 A 49.322645430303226 49.322645430303226 0 0 1 21.40063509461097,12.933012701892217 Z M 67.14464148535262,14.808076308280569 L 66.7171971848359,13.904034622319251 A 48.322645430303226 48.322645430303226 0 0 0 67.30747934387796,13.62002934539183 L 65.98850013579063,10.925536100153806 L 73.8144601174479,10.991493400727734 L 69.0661182879944,17.212687005709192 L 67.74713907990707,14.518193760471169 A 49.322645430303226 49.322645430303226 0 0 1 67.14464148535262,14.808076308280569"/><text text-anchor="middle" pointer-events="none" font-size="8px" fill="#000000" x="44.39306161446689" y="22.012462072982693" transform="rotate(180 44.39306161446689 19.012462072982693)" font-family="sans-serif">twowheeler</text></g><g class="relationship" transform="translate(203.96104084616096 6.318060847067886) rotate(466.46420229777027)"><path class="outline" fill="#A5ABB6" stroke="none" d="M 25 0.5 L 62.170980690281624 0.5 L 62.170980690281624 -0.5 L 25 -0.5 Z M 81.50691819028162 0.5 L 118.67789888056325 0.5 L 118.67789888056325 3.5 L 125.67789888056325 0 L 118.67789888056325 -3.5 L 118.67789888056325 -0.5 L 81.50691819028162 -0.5 Z"/><text text-anchor="middle" pointer-events="none" font-size="8px" fill="#000000" x="71.83894944028162" y="3" transform="rotate(180 71.83894944028162 0)" font-family="sans-serif">trek</text></g><g class="relationship" transform="translate(36.32151654538519 6.6431230603345535) rotate(374.70140960048525)"><path class="outline" fill="#A5ABB6" stroke="none" d="M 24.018736134675446,6.953439040707552 L 24.277555179777966,5.987513214418485 A 131.9814700292848 131.9814700292848 0 0 0 46.936656627154,9.98268191626397 L 46.849521542249434,10.978878421466959 A 132.9814700292848 132.9814700292848 0 0 1 24.018736134675446,6.953439040707552 Z M 66.23923833396533,11.255583000911912 L 66.18056576019801,10.257305720249093 A 131.9814700292848 131.9814700292848 0 0 0 88.9444443079462,6.910354148736245 L 88.2509930739845,3.991600067605564 L 95.8704457029114,5.778760283014082 L 89.86904595322845,10.802026256910487 L 89.17559471926675,7.883272175779806 A 132.9814700292848 132.9814700292848 0 0 1 66.23923833396533,11.255583000911912"/><text text-anchor="middle" pointer-events="none" font-size="8px" fill="#000000" x="56.54646411474809" y="13.971184719148965" font-family="sans-serif">trek</text></g><g class="relationship" transform="translate(152.57996255732547 37.14601249737429) rotate(373.3141413587706)"><path class="outline" fill="#A5ABB6" stroke="none" d="M 25 0.5 L 50.29690821177989 0.5 L 50.29690821177989 -0.5 L 25 -0.5 Z M 72.3086269617799 0.5 L 97.60553517355979 0.5 L 97.60553517355979 3.5 L 104.60553517355979 0 L 97.60553517355979 -3.5 L 97.60553517355979 -0.5 L 72.3086269617799 -0.5 Z"/><text text-anchor="middle" pointer-events="none" font-size="8px" fill="#000000" x="61.30276758677989" y="3" font-family="sans-serif">road</text></g><g class="relationship" transform="translate(152.57996255732547 37.14601249737429) rotate(373.3141413587706)"><path class="outline" fill="#A5ABB6" stroke="none" d="M 21.40063509461097,12.933012701892217 L 21.90063509461097,12.06698729810778 A 82.72569276544544 82.72569276544544 0 0 0 51.55928779221679,22.317977038495357 L 51.417805825806404,23.307917871667044 A 83.72569276544544 83.72569276544544 0 0 1 21.40063509461097,12.933012701892217 Z M 70.81973378718693,23.80845515031052 L 70.7294836852138,22.812536017502126 A 82.72569276544544 82.72569276544544 0 0 0 100.87724876941559,14.104451789469204 L 99.51320698138018,11.432488092018735 L 107.33917102813925,11.367014900295008 L 102.69597115346279,17.667070052736495 L 101.33192936542738,14.995106355286028 A 83.72569276544544 83.72569276544544 0 0 1 70.81973378718693,23.80845515031052"/><text text-anchor="middle" pointer-events="none" font-size="8px" fill="#000000" x="61.11711199810695" y="26.622446817510422" font-family="sans-serif">trek</text></g><g class="relationship" transform="translate(278.7019684263618 66.9928612957919) rotate(219.06974535298139)"><path class="outline" fill="#A5ABB6" stroke="none" d="M 25 0.5 L 33.6284258722157 0.5 L 33.6284258722157 -0.5 L 25 -0.5 Z M 55.6401446222157 0.5 L 64.2685704944314 0.5 L 64.2685704944314 3.5 L 71.2685704944314 0 L 64.2685704944314 -3.5 L 64.2685704944314 -0.5 L 55.6401446222157 -0.5 Z"/><text text-anchor="middle" pointer-events="none" font-size="8px" fill="#000000" x="44.6342852472157" y="3" transform="rotate(180 44.6342852472157 0)" font-family="sans-serif">road</text></g><g class="relationship" transform="translate(278.7019684263618 66.9928612957919) rotate(219.06974535298139)"><path class="outline" fill="#A5ABB6" stroke="none" d="M 21.40063509461097,-12.933012701892217 L 21.90063509461097,-12.06698729810778 A 48.322645430303226 48.322645430303226 0 0 1 34.941446409904515,-17.244004409067337 L 34.711315975181165,-18.21716420222262 A 49.322645430303226 49.322645430303226 0 0 0 21.40063509461097,-12.933012701892217 Z M 54.10652096434634,-18.880534876002777 L 53.94342015974835,-17.893925466185756 A 48.322645430303226 48.322645430303226 0 0 1 67.30747934387796,-13.62002934539183 L 65.98850013579063,-10.925536100153806 L 73.8144601174479,-10.991493400727734 L 69.0661182879944,-17.212687005709192 L 67.74713907990707,-14.518193760471169 A 49.322645430303226 49.322645430303226 0 0 0 54.10652096434634,-18.880534876002777"/><text text-anchor="middle" pointer-events="none" font-size="8px" fill="#000000" x="44.39306161446689" y="-16.012462072982693" transform="rotate(180 44.39306161446689 -19.012462072982693)" font-family="sans-serif">trek</text></g><g class="relationship" transform="translate(36.32151654538519 6.6431230603345535) rotate(313.59245344338945)"><path class="outline" fill="#A5ABB6" stroke="none" d="M 21.40063509461097,12.933012701892217 L 21.90063509461097,12.06698729810778 A 33.243068298511616 33.243068298511616 0 0 0 27.86707723714614,14.766859745380145 L 27.546556522540577,15.714101251812764 A 34.243068298511616 34.243068298511616 0 0 1 21.40063509461097,12.933012701892217 Z M 46.88633798488534,16.483494651215608 L 46.64207924416431,15.513784556609295 A 33.243068298511616 33.243068298511616 0 0 0 52.804143548959715,13.296419774863562 L 51.51527567038314,10.587394195144256 L 59.34001454806752,10.740565654804776 L 54.522634053728474,16.90845388115597 L 53.2337661751519,14.199428301436665 A 34.243068298511616 34.243068298511616 0 0 1 46.88633798488534,16.483494651215608"/><text text-anchor="middle" pointer-events="none" font-size="8px" fill="#000000" x="37.18083175922723" y="19.994043323468134" font-family="sans-serif">trek</text></g><g class="relationship" transform="translate(92.80404475158201 -52.68501982826192) rotate(387.9597434600101)"><path class="outline" fill="#A5ABB6" stroke="none" d="M 25 0.5 L 49.75508209376813 0.5 L 49.75508209376813 -0.5 L 25 -0.5 Z M 69.09101959376812 0.5 L 93.84610168753626 0.5 L 93.84610168753626 3.5 L 100.84610168753626 0 L 93.84610168753626 -3.5 L 93.84610168753626 -0.5 L 69.09101959376812 -0.5 Z"/><text text-anchor="middle" pointer-events="none" font-size="8px" fill="#000000" x="59.42305084376813" y="3" font-family="sans-serif">trek</text></g><g class="relationship" transform="translate(36.32151654538519 6.6431230603345535) rotate(313.59245344338945)"><path class="outline" fill="#A5ABB6" stroke="none" d="M 25 0.5 L 26.45175448119754 0.5 L 26.45175448119754 -0.5 L 25 -0.5 Z M 48.46347323119754 0.5 L 49.91522771239508 0.5 L 49.91522771239508 3.5 L 56.91522771239508 0 L 49.91522771239508 -3.5 L 49.91522771239508 -0.5 L 48.46347323119754 -0.5 Z"/><text text-anchor="middle" pointer-events="none" font-size="8px" fill="#000000" x="37.45761385619754" y="3" font-family="sans-serif">road</text></g><g class="relationship" transform="translate(36.32151654538519 6.6431230603345535) rotate(313.59245344338945)"><path class="outline" fill="#A5ABB6" stroke="none" d="M 21.40063509461097,-12.933012701892217 L 21.90063509461097,-12.06698729810778 A 33.243068298511616 33.243068298511616 0 0 1 22.270228721999327,-12.277232186376914 L 21.781346637592122,-13.149582063172726 A 34.243068298511616 34.243068298511616 0 0 0 21.40063509461097,-12.933012701892217 Z M 52.837053515246325,-14.385069440937528 L 52.4190160851133,-13.47663963792148 A 33.243068298511616 33.243068298511616 0 0 1 52.804143548959715,-13.296419774863562 L 51.51527567038314,-10.587394195144256 L 59.34001454806752,-10.740565654804776 L 54.522634053728474,-16.90845388115597 L 53.2337661751519,-14.199428301436665 A 34.243068298511616 34.243068298511616 0 0 0 52.837053515246325,-14.385069440937528"/><text text-anchor="middle" pointer-events="none" font-size="8px" fill="#000000" x="37.18083175922722" y="-13.994043323468134" font-family="sans-serif">Publi…</text></g><g class="relationship" transform="translate(92.80404475158201 -52.68501982826192) rotate(494.61588708994987)"><path class="outline" fill="#A5ABB6" stroke="none" d="M 24.018736134675446,-6.953439040707552 L 24.277555179777966,-5.987513214418485 A 189.21871566454686 189.21871566454686 0 0 1 47.9574100544299,-10.736823978767802 L 47.82373642526304,-11.727849387556773 A 190.21871566454686 190.21871566454686 0 0 0 24.018736134675446,-6.953439040707552 Z M 94.29155316063668,-12.267725776004028 L 94.1809405397727,-11.273862179676257 A 189.21871566454686 189.21871566454686 0 0 1 117.96474625484572,-7.075997802567238 L 117.2558240383376,-4.1609627614500315 L 124.88464838687057,-5.907685137567791 L 118.90997587685656,-10.962711190723512 L 118.20105366034844,-8.047676149606307 A 190.21871566454686 190.21871566454686 0 0 0 94.29155316063668,-12.267725776004028"/><text text-anchor="middle" pointer-events="none" font-size="8px" fill="#000000" x="71.04690492172445" y="-9.922181347729719" transform="rotate(180 71.04690492172445 -12.922181347729719)" font-family="sans-serif">twowheeler</text></g><g class="relationship" transform="translate(-11.970213545796405 53.50356191675136) rotate(419.4881404859715)"><path class="outline" fill="#A5ABB6" stroke="none" d="M 24.018736134675446,-6.953439040707552 L 24.277555179777966,-5.987513214418485 A 119.94954130559313 119.94954130559313 0 0 1 30.56864871742629,-7.4926335722544195 L 30.36227750554741,-8.471107344466859 A 120.94954130559313 120.94954130559313 0 0 0 24.018736134675446,-6.953439040707552 Z M 76.7260329413233,-9.1658705885026 L 76.54907276611875,-8.181652575869435 A 119.94954130559313 119.94954130559313 0 0 1 82.88244006983803,-6.865710408754074 L 82.1931587558233,-3.9459687643358343 L 89.81005079248304,-5.744010950122746 L 83.80148182185766,-10.758699267978393 L 83.11220050784294,-7.8389576235601535 A 120.94954130559313 120.94954130559313 0 0 0 76.7260329413233,-9.1658705885026"/><text text-anchor="middle" pointer-events="none" font-size="8px" fill="#000000" x="53.51804100785383" y="-7.561173420523971" font-family="sans-serif">twowheeler</text></g><g class="relationship" transform="translate(45.981195515488736 151.83898198060064) rotate(359.49240767483184)"><path class="outline" fill="#A5ABB6" stroke="none" d="M 24.018736134675446,6.953439040707552 L 24.277555179777966,5.987513214418485 A 122.21579899152495 122.21579899152495 0 0 0 31.130361077026237,7.613617165066202 L 30.927613390567974,8.59284817746105 A 123.21579899152495 123.21579899152495 0 0 1 24.018736134675446,6.953439040707552 Z M 77.29847200889887,9.281235123706495 L 77.12488111704283,8.296417271378147 A 122.21579899152495 122.21579899152495 0 0 0 84.02293641632585,6.874448280258273 L 83.33283893931137,3.954899432881634 L 90.95023330637375,5.750812308453943 L 84.94306638567848,10.767180076760457 L 84.252968908664,7.847631229383818 A 123.21579899152495 123.21579899152495 0 0 1 77.29847200889887,9.281235123706495"/><text text-anchor="middle" pointer-events="none" font-size="8px" fill="#000000" x="54.087785675496505" y="13.638395673052727" font-family="sans-serif">twowheeler</text></g><g class="relationship" transform="translate(92.80404475158201 -52.68501982826192) rotate(494.61588708994987)"><path class="outline" fill="#A5ABB6" stroke="none" d="M 24.018736134675446,6.953439040707552 L 24.277555179777966,5.987513214418485 A 189.21871566454686 189.21871566454686 0 0 0 61.41790161729974,12.064623518642435 L 61.35536519840089,13.062666201252398 A 190.21871566454686 190.21871566454686 0 0 1 24.018736134675446,6.953439040707552 Z M 80.73256463564856,13.287796047786344 L 80.69323305817518,12.288569833651906 A 189.21871566454686 189.21871566454686 0 0 0 117.96474625484572,7.075997802567238 L 117.2558240383376,4.1609627614500315 L 124.88464838687057,5.907685137567791 L 118.90997587685656,10.962711190723512 L 118.20105366034844,8.047676149606307 A 190.21871566454686 190.21871566454686 0 0 1 80.73256463564856,13.287796047786344"/><text text-anchor="middle" pointer-events="none" font-size="8px" fill="#000000" x="71.0469049217245" y="15.922181347729719" transform="rotate(180 71.0469049217245 12.922181347729719)" font-family="sans-serif">trek</text></g><g class="relationship" transform="translate(-11.970213545796405 53.50356191675136) rotate(419.4881404859715)"><path class="outline" fill="#A5ABB6" stroke="none" d="M 24.018736134675446,6.953439040707552 L 24.277555179777966,5.987513214418485 A 119.94954130559313 119.94954130559313 0 0 0 43.91489748302021,9.530985161542873 L 43.819791796797595,10.526452342542882 A 120.94954130559313 120.94954130559313 0 0 1 24.018736134675446,6.953439040707552 Z M 63.21297603958434,10.817060199263324 L 63.14774061137654,9.81919029847137 A 119.94954130559313 119.94954130559313 0 0 0 82.88244006983803,6.865710408754074 L 82.1931587558233,3.9459687643358343 L 89.81005079248304,5.744010950122746 L 83.80148182185766,10.758699267978393 L 83.11220050784294,7.8389576235601535 A 120.94954130559313 120.94954130559313 0 0 1 63.21297603958434,10.817060199263324"/><text text-anchor="middle" pointer-events="none" font-size="8px" fill="#000000" x="53.51804100785383" y="13.561173420523971" font-family="sans-serif">trek</text></g><g class="relationship" transform="translate(45.981195515488736 151.83898198060064) rotate(359.49240767483184)"><path class="outline" fill="#A5ABB6" stroke="none" d="M 24.018736134675446,-6.953439040707552 L 24.277555179777966,-5.987513214418485 A 122.21579899152495 122.21579899152495 0 0 1 44.48327459917053,-9.61662753859028 L 44.38978376520046,-10.61224767898699 A 123.21579899152495 123.21579899152495 0 0 0 24.018736134675446,-6.953439040707552 Z M 63.782290184655345,-10.900134267070499 L 63.7183944936978,-9.902177684509383 A 122.21579899152495 122.21579899152495 0 0 1 84.02293641632585,-6.874448280258273 L 83.33283893931137,-3.954899432881634 L 90.95023330637375,-5.750812308453943 L 84.94306638567848,-10.767180076760457 L 84.252968908664,-7.847631229383818 A 123.21579899152495 123.21579899152495 0 0 0 63.782290184655345,-10.900134267070499"/><text text-anchor="middle" pointer-events="none" font-size="8px" fill="#000000" x="54.08778567549651" y="-7.638395673052727" font-family="sans-serif">trek</text></g><g class="relationship" transform="translate(92.80404475158201 -52.68501982826192) rotate(416.3591674503307)"><path class="outline" fill="#A5ABB6" stroke="none" d="M 25 0.5 L 40.782876280936485 0.5 L 40.782876280936485 -0.5 L 25 -0.5 Z M 60.118813780936485 0.5 L 75.90169006187297 0.5 L 75.90169006187297 3.5 L 82.90169006187297 0 L 75.90169006187297 -3.5 L 75.90169006187297 -0.5 L 60.118813780936485 -0.5 Z"/><text text-anchor="middle" pointer-events="none" font-size="8px" fill="#000000" x="50.450845030936485" y="3" font-family="sans-serif">trek</text></g><g class="relationship" transform="translate(-11.970213545796405 53.50356191675136) rotate(467.0403254090745)"><path class="outline" fill="#A5ABB6" stroke="none" d="M 24.018736134675446,-6.953439040707552 L 24.277555179777966,-5.987513214418485 A 148.89672866858493 148.89672866858493 0 0 1 37.78867723242289,-8.94280972959561 L 37.62059975144646,-9.928583517230777 A 149.89672866858493 149.89672866858493 0 0 0 24.018736134675446,-6.953439040707552 Z M 84.04912639934768,-10.549409042513645 L 83.9074671231561,-9.559493566592153 A 148.89672866858493 148.89672866858493 0 0 1 97.49277863307765,-6.966520795335383 L 96.79408132863396,-4.049018082952216 L 104.41673451271231,-5.822477537030659 L 98.42437503900256,-10.856524411846273 L 97.72567773455887,-7.9390216994631055 A 149.89672866858493 149.89672866858493 0 0 0 84.04912639934768,-10.549409042513645"/><text text-anchor="middle" pointer-events="none" font-size="8px" fill="#000000" x="60.81736366949698" y="-8.547691879629696" transform="rotate(180 60.81736366949698 -11.547691879629696)" font-family="sans-serif">twowheeler</text></g><g class="relationship" transform="translate(-49.69363881882276 176.58144304607234) rotate(345.5004117119379)"><path class="outline" fill="#A5ABB6" stroke="none" d="M 21.40063509461097,12.933012701892217 L 21.90063509461097,12.06698729810778 A 50.9835655656182 50.9835655656182 0 0 0 23.64074643918672,13.026916503279146 L 23.174877267920856,13.911770115615141 A 51.9835655656182 51.9835655656182 0 0 1 21.40063509461097,12.933012701892217 Z M 68.4895997285293,15.423923362517684 L 68.08375642744834,14.509980686543031 A 50.9835655656182 50.9835655656182 0 0 0 69.88399110604183,13.66819290304204 L 68.56053090985327,10.975897765226623 L 76.38658979364257,11.028834968237975 L 71.64860470095991,17.2579197534626 L 70.32514450477134,14.565624615647181 A 51.9835655656182 51.9835655656182 0 0 1 68.4895997285293,15.423923362517684"/><text text-anchor="middle" pointer-events="none" font-size="8px" fill="#000000" x="45.6753659583546" y="22.368848850117566" font-family="sans-serif">twowheeler</text></g><g class="relationship" transform="translate(-11.970213545796405 53.50356191675136) rotate(467.0403254090745)"><path class="outline" fill="#A5ABB6" stroke="none" d="M 24.018736134675446,6.953439040707552 L 24.277555179777966,5.987513214418485 A 148.89672866858493 148.89672866858493 0 0 0 51.20018864852791,10.607354151540221 L 51.12218374024014,11.604307126500942 A 149.89672866858493 149.89672866858493 0 0 1 24.018736134675446,6.953439040707552 Z M 70.50756340106581,11.863521436746197 L 70.45624340791638,10.864839175812762 A 148.89672866858493 148.89672866858493 0 0 0 97.49277863307765,6.966520795335383 L 96.79408132863396,4.049018082952216 L 104.41673451271231,5.822477537030659 L 98.42437503900256,10.856524411846273 L 97.72567773455887,7.9390216994631055 A 149.89672866858493 149.89672866858493 0 0 1 70.50756340106581,11.863521436746197"/><text text-anchor="middle" pointer-events="none" font-size="8px" fill="#000000" x="60.817363669497034" y="14.547691879629696" transform="rotate(180 60.817363669497034 11.547691879629696)" font-family="sans-serif">trek</text></g><g class="relationship" transform="translate(-49.69363881882276 176.58144304607234) rotate(345.5004117119379)"><path class="outline" fill="#A5ABB6" stroke="none" d="M 25 0.5 L 34.90533192938552 0.5 L 34.90533192938552 -0.5 L 25 -0.5 Z M 56.91705067938552 0.5 L 66.82238260877104 0.5 L 66.82238260877104 3.5 L 73.82238260877104 0 L 66.82238260877104 -3.5 L 66.82238260877104 -0.5 L 56.91705067938552 -0.5 Z"/><text text-anchor="middle" pointer-events="none" font-size="8px" fill="#000000" x="45.91119130438552" y="3" font-family="sans-serif">road</text></g><g class="relationship" transform="translate(-49.69363881882276 176.58144304607234) rotate(345.5004117119379)"><path class="outline" fill="#A5ABB6" stroke="none" d="M 21.40063509461097,-12.933012701892217 L 21.90063509461097,-12.06698729810778 A 50.9835655656182 50.9835655656182 0 0 1 36.209325883189635,-17.6558825996838 L 35.989978886364995,-18.63152951070439 A 51.9835655656182 51.9835655656182 0 0 0 21.40063509461097,-12.933012701892217 Z M 55.38836052514067,-19.278853916259962 L 55.23454378400875,-18.290754523411472 A 50.9835655656182 50.9835655656182 0 0 1 69.88399110604183,-13.66819290304204 L 68.56053090985327,-10.975897765226623 L 76.38658979364257,-11.028834968237975 L 71.64860470095991,-17.2579197534626 L 70.32514450477134,-14.565624615647181 A 51.9835655656182 51.9835655656182 0 0 0 55.38836052514067,-19.278853916259962"/><text text-anchor="middle" pointer-events="none" font-size="8px" fill="#000000" x="45.67536595835459" y="-16.368848850117566" font-family="sans-serif">trek</text></g><g class="relationship" transform="translate(-49.69363881882276 176.58144304607234) rotate(388.66186179831647)"><path class="outline" fill="#A5ABB6" stroke="none" d="M 25 0.5 L 51.33778045153393 0.5 L 51.33778045153393 -0.5 L 25 -0.5 Z M 70.67371795153393 0.5 L 97.01149840306786 0.5 L 97.01149840306786 3.5 L 104.01149840306786 0 L 97.01149840306786 -3.5 L 97.01149840306786 -0.5 L 70.67371795153393 -0.5 Z"/><text text-anchor="middle" pointer-events="none" font-size="8px" fill="#000000" x="61.00574920153393" y="3" font-family="sans-serif">trek</text></g><g class="relationship" transform="translate(63.509516128232505 238.46045750362308) rotate(318.1196815733159)"><path class="outline" fill="#A5ABB6" stroke="none" d="M 25 0.5 L 52.4744704442015 0.5 L 52.4744704442015 -0.5 L 25 -0.5 Z M 71.8104079442015 0.5 L 99.284878388403 0.5 L 99.284878388403 3.5 L 106.284878388403 0 L 99.284878388403 -3.5 L 99.284878388403 -0.5 L 71.8104079442015 -0.5 Z"/><text text-anchor="middle" pointer-events="none" font-size="8px" fill="#000000" x="62.1424391942015" y="3" font-family="sans-serif">trek</text></g></g><g class="layer nodes"><g class="node" transform="translate(36.32151654538519,6.6431230603345535)"><circle class="outline" cx="0" cy="0" r="25" fill="#F16667" stroke="#eb2728" stroke-width="2px"/><text text-anchor="middle" pointer-events="none" font-family="sans-serif" dy="1.5625" font-size="25" fill="#FFFFFF"/><text text-anchor="middle" pointer-events="none" x="0" y="5" font-size="10px" fill="#FFFFFF" font-family="sans-serif"> Darjeeling</text></g><g class="node" transform="translate(161.25647873086118,150.81771339198494)"><circle class="outline" cx="0" cy="0" r="25" fill="#D9C8AE" stroke="#c0a378" stroke-width="2px"/><text text-anchor="middle" pointer-events="none" font-family="sans-serif" dy="1.5625" font-size="25" fill="#2A2C34"/><text text-anchor="middle" pointer-events="none" x="0" y="5" font-size="10px" fill="#2A2C34" font-family="sans-serif"> Sandak…</text></g><g class="node" transform="translate(152.57996255732547,37.14601249737429)"><circle class="outline" cx="0" cy="0" r="25" fill="#8DCC93" stroke="#5db665" stroke-width="2px"/><text text-anchor="middle" pointer-events="none" font-family="sans-serif" dy="1.5625" font-size="25" fill="#2A2C34"/><text text-anchor="middle" pointer-events="none" x="0" y="5" font-size="10px" fill="#2A2C34" font-family="sans-serif"> Tumbling</text></g><g class="node" transform="translate(278.7019684263618,66.9928612957919)"><circle class="outline" cx="0" cy="0" r="25" fill="#8DCC93" stroke="#5db665" stroke-width="2px"/><text text-anchor="middle" pointer-events="none" font-family="sans-serif" dy="1.5625" font-size="25" fill="#2A2C34"/><text text-anchor="middle" pointer-events="none" x="0" y="5" font-size="10px" fill="#2A2C34" font-family="sans-serif"> Gairibus</text></g><g class="node" transform="translate(203.96104084616096,6.318060847067886)"><circle class="outline" cx="0" cy="0" r="25" fill="#8DCC93" stroke="#5db665" stroke-width="2px"/><text text-anchor="middle" pointer-events="none" font-family="sans-serif" dy="1.5625" font-size="25" fill="#2A2C34"/><text text-anchor="middle" pointer-events="none" x="0" y="5" font-size="10px" fill="#2A2C34" font-family="sans-serif"> BhikeBh…</text></g><g class="node" transform="translate(92.80404475158201,-52.68501982826192)"><circle class="outline" cx="0" cy="0" r="25" fill="#F16667" stroke="#eb2728" stroke-width="2px"/><text text-anchor="middle" pointer-events="none" font-family="sans-serif" dy="1.5625" font-size="25" fill="#FFFFFF"/><text text-anchor="middle" pointer-events="none" x="0" y="5" font-size="10px" fill="#FFFFFF" font-family="sans-serif"> Rimbik</text></g><g class="node" transform="translate(-11.970213545796405,53.50356191675136)"><circle class="outline" cx="0" cy="0" r="25" fill="#8DCC93" stroke="#5db665" stroke-width="2px"/><text text-anchor="middle" pointer-events="none" font-family="sans-serif" dy="1.5625" font-size="25" fill="#2A2C34"/><text text-anchor="middle" pointer-events="none" x="0" y="5" font-size="10px" fill="#2A2C34" font-family="sans-serif"> Sirikhola</text></g><g class="node" transform="translate(45.981195515488736,151.83898198060064)"><circle class="outline" cx="0" cy="0" r="25" fill="#8DCC93" stroke="#5db665" stroke-width="2px"/><text text-anchor="middle" pointer-events="none" font-family="sans-serif" dy="1.5625" font-size="25" fill="#2A2C34"/><text text-anchor="middle" pointer-events="none" x="0" y="5" font-size="10px" fill="#2A2C34" font-family="sans-serif"> Gurdum</text></g><g class="node" transform="translate(-49.69363881882276,176.58144304607234)"><circle class="outline" cx="0" cy="0" r="25" fill="#8DCC93" stroke="#5db665" stroke-width="2px"/><text text-anchor="middle" pointer-events="none" font-family="sans-serif" dy="1.5625" font-size="25" fill="#2A2C34"/><text text-anchor="middle" pointer-events="none" x="0" y="5" font-size="10px" fill="#2A2C34" font-family="sans-serif"> Rammam</text></g><g class="node" transform="translate(63.509516128232505,238.46045750362308)"><circle class="outline" cx="0" cy="0" r="25" fill="#D9C8AE" stroke="#c0a378" stroke-width="2px"/><text text-anchor="middle" pointer-events="none" font-family="sans-serif" dy="1.5625" font-size="25" fill="#2A2C34"/><text text-anchor="middle" pointer-events="none" x="0" y="5" font-size="10px" fill="#2A2C34" font-family="sans-serif"> Sabargr…</text></g></g></svg>