<svg xmlns="http://www.w3.org/2000/svg" width="268.86566162109375" height="289.16912841796875" viewBox="-30.99835777282715 -40.332374572753906 268.86566162109375 289.16912841796875"><title>Neo4j Graph Visualization</title><desc>Created using Neo4j (http://www.neo4j.com/)</desc><g class="layer relationships"><g class="relationship" transform="translate(116.53146434566662 -11.332373582133963) rotate(391.6089554267943)"><path class="outline" fill="#A5ABB6" stroke="none" d="M 25 0.5 L 33.48763158345185 0.5 L 33.48763158345185 -0.5 L 25 -0.5 Z M 67.93294408345184 0.5 L 76.4205756669037 0.5 L 76.4205756669037 3.5 L 83.4205756669037 0 L 76.4205756669037 -3.5 L 76.4205756669037 -0.5 L 67.93294408345184 -0.5 Z"/><text text-anchor="middle" pointer-events="none" font-size="8px" fill="#000000" x="50.71028783345185" y="3" font-family="sans-serif">ORIGIN</text></g><g class="relationship" transform="translate(116.53146434566662 -11.332373582133963) rotate(509.8286916920698)"><path class="outline" fill="#A5ABB6" stroke="none" d="M 25 0.5 L 26.044143613510876 0.5 L 26.044143613510876 -0.5 L 25 -0.5 Z M 74.71601861351087 0.5 L 75.76016222702175 0.5 L 75.76016222702175 3.5 L 82.76016222702175 0 L 75.76016222702175 -3.5 L 75.76016222702175 -0.5 L 74.71601861351087 -0.5 Z"/><text text-anchor="middle" pointer-events="none" font-size="8px" fill="#000000" x="50.380081113510876" y="3" transform="rotate(180 50.380081113510876 0)" font-family="sans-serif">DESTINA…</text></g><g class="relationship" transform="translate(-1.9983573462115485 147.53540000181962) rotate(283.6188901935652)"><path class="outline" fill="#A5ABB6" stroke="none" d="M 25 0.5 L 33.14641143770135 0.5 L 33.14641143770135 -0.5 L 25 -0.5 Z M 67.59172393770135 0.5 L 75.7381353754027 0.5 L 75.7381353754027 3.5 L 82.7381353754027 0 L 75.7381353754027 -3.5 L 75.7381353754027 -0.5 L 67.59172393770135 -0.5 Z"/><text text-anchor="middle" pointer-events="none" font-size="8px" fill="#000000" x="50.36906768770135" y="3" font-family="sans-serif">ORIGIN</text></g><g class="relationship" transform="translate(-1.9983573462115485 147.53540000181962) rotate(401.8398280820429)"><path class="outline" fill="#A5ABB6" stroke="none" d="M 25 0.5 L 26.358875707573603 0.5 L 26.358875707573603 -0.5 L 25 -0.5 Z M 75.0307507075736 0.5 L 76.3896264151472 0.5 L 76.3896264151472 3.5 L 83.3896264151472 0 L 76.3896264151472 -3.5 L 76.3896264151472 -0.5 L 75.0307507075736 -0.5 Z"/><text text-anchor="middle" pointer-events="none" font-size="8px" fill="#000000" x="50.6948132075736" y="3" font-family="sans-serif">DESTINA…</text></g></g><g class="layer nodes"><g class="node" transform="translate(208.86730809644564,45.492912926378374)"><circle class="outline" cx="0" cy="0" r="25" fill="#ECB5C9" stroke="#da7298" stroke-width="2px"/><text text-anchor="middle" pointer-events="none" font-family="sans-serif" dy="1.5625" font-size="25" fill="#2A2C34"/><text text-anchor="middle" pointer-events="none" x="0" y="5" font-size="10px" fill="#2A2C34" font-family="sans-serif"> MSN</text></g><g class="node" transform="translate(78.75326834896312,219.836755881233)"><circle class="outline" cx="0" cy="0" r="25" fill="#ECB5C9" stroke="#da7298" stroke-width="2px"/><text text-anchor="middle" pointer-events="none" font-family="sans-serif" dy="1.5625" font-size="25" fill="#2A2C34"/><text text-anchor="middle" pointer-events="none" x="0" y="5" font-size="10px" fill="#2A2C34" font-family="sans-serif"> GRR</text></g><g class="node" transform="translate(116.53146434566662,-11.332373582133963)"><circle class="outline" cx="0" cy="0" r="25" fill="#4C8EDA" stroke="#2870c2" stroke-width="2px"/><text text-anchor="middle" pointer-events="none" font-family="sans-serif" dy="1.5625" font-size="25" fill="#FFFFFF"/><text text-anchor="middle" pointer-events="none" x="0" y="5" font-size="10px" fill="#FFFFFF" font-family="sans-serif"> 11/30/20…</text></g><g class="node" transform="translate(23.369938961623316,42.82649227851993)"><circle class="outline" cx="0" cy="0" r="25" fill="#ECB5C9" stroke="#da7298" stroke-width="2px"/><text text-anchor="middle" pointer-events="none" font-family="sans-serif" dy="1.5625" font-size="25" fill="#2A2C34"/><text text-anchor="middle" pointer-events="none" x="0" y="5" font-size="10px" fill="#2A2C34" font-family="sans-serif"> ORD</text></g><g class="node" transform="translate(-1.9983573462115485,147.53540000181962)"><circle class="outline" cx="0" cy="0" r="25" fill="#4C8EDA" stroke="#2870c2" stroke-width="2px"/><text text-anchor="middle" pointer-events="none" font-family="sans-serif" dy="1.5625" font-size="25" fill="#FFFFFF"/><text text-anchor="middle" pointer-events="none" x="0" y="5" font-size="10px" fill="#FFFFFF" font-family="sans-serif"> 11/17/20…</text></g></g></svg>